<?xml version="1.0" encoding="UTF-8" standalone="no"?>
<!-- Generator: Adobe Illustrator 19.0.0, SVG Export Plug-In . SVG Version: 6.00 Build 0)  -->

<svg
   xmlns:dc="http://purl.org/dc/elements/1.1/"
   xmlns:cc="http://creativecommons.org/ns#"
   xmlns:rdf="http://www.w3.org/1999/02/22-rdf-syntax-ns#"
   xmlns:svg="http://www.w3.org/2000/svg"
   xmlns="http://www.w3.org/2000/svg"
   xmlns:sodipodi="http://sodipodi.sourceforge.net/DTD/sodipodi-0.dtd"
   xmlns:inkscape="http://www.inkscape.org/namespaces/inkscape"
   version="1.1"
   id="Layer_1"
   x="0px"
   y="0px"
   viewBox="0 0 701.2 529.1"
   style="enable-background:new 0 0 701.2 529.1;"
   xml:space="preserve"
   inkscape:version="0.91 r13725"
   sodipodi:docname="active-directory.svg"><metadata
     id="metadata24"><rdf:RDF><cc:Work
         rdf:about=""><dc:format>image/svg+xml</dc:format><dc:type
           rdf:resource="http://purl.org/dc/dcmitype/StillImage" /><dc:title></dc:title></cc:Work></rdf:RDF></metadata><defs
     id="defs22" /><sodipodi:namedview
     pagecolor="#ffffff"
     bordercolor="#666666"
     borderopacity="1"
     objecttolerance="10"
     gridtolerance="10"
     guidetolerance="10"
     inkscape:pageopacity="0"
     inkscape:pageshadow="2"
     inkscape:window-width="1920"
     inkscape:window-height="1017"
     id="namedview20"
     showgrid="false"
     inkscape:zoom="0.89208093"
     inkscape:cx="348.95675"
     inkscape:cy="251.14164"
     inkscape:window-x="-8"
     inkscape:window-y="-8"
     inkscape:window-maximized="1"
     inkscape:current-layer="Layer_1" /><style
     type="text/css"
     id="style3">
	.st0{fill:#F2F2F2;}
	.st1{fill:#4F6BD5;}
</style><path
     id="XMLID_27_"
     class="st0"
     d="M645,382C559.9,511.2,167.5,605.8,117.4,442C73.1,297,74.5,372.6,12.2,289.1  C-80.3,165,377.7,59.7,548.9,59.7S739.1,239.2,645,382z" /><path
     id="XMLID_15_"
     class="st1"
     d="M186.8,452.9c-3.5,0-6.4-2.8-6.4-6.4V190.3c0-3.5,2.8-6.4,6.4-6.4s6.4,2.8,6.4,6.4v256.3  C193.2,450.1,190.3,452.9,186.8,452.9z"
     style="fill:#2196f3;fill-opacity:1" /><path
     id="XMLID_14_"
     class="st1"
     d="M527,452.9c-3.5,0-6.4-6.3-6.4-14.1V198c0-7.8,2.8-14.1,6.4-14.1s6.4,6.3,6.4,14.1v240.8  C533.4,446.6,530.5,452.9,527,452.9z"
     style="fill:#2196f3;fill-opacity:1" /><rect
     id="XMLID_13_"
     x="391.7"
     y="48.3"
     transform="matrix(-0.8122 0.5834 -0.5834 -0.8122 774.5801 -67.0344)"
     class="st1"
     width="12.7"
     height="85.8"
     style="fill:#2196f3;fill-opacity:1" /><rect
     id="XMLID_12_"
     x="376.6"
     y="169.1"
     transform="matrix(-0.8376 0.5462 -0.5462 -0.8376 827.3309 105.0511)"
     class="st1"
     width="42.9"
     height="12.7"
     style="fill:#2196f3;fill-opacity:1" /><rect
     id="XMLID_11_"
     x="311"
     y="154.5"
     transform="matrix(-0.5478 0.8366 -0.8366 -0.5478 638.6357 6.9814)"
     class="st1"
     width="12.8"
     height="43.1"
     style="fill:#2196f3;fill-opacity:1" /><rect
     id="XMLID_10_"
     x="270.9"
     y="84.7"
     transform="matrix(-0.5822 0.8131 -0.8131 -0.5822 570.725 -111.1803)"
     class="st1"
     width="86.1"
     height="12.7"
     style="fill:#2196f3;fill-opacity:1" /><rect
     id="XMLID_9_"
     x="350.5"
     y="61.5"
     class="st1"
     width="12.7"
     height="114.8"
     style="fill:#2196f3;fill-opacity:1" /><path
     id="XMLID_31_"
     class="st1"
     d="M356.8,67.9c-18.7,0-33.9-15.2-33.9-33.9S338.1,0,356.8,0c18.7,0,33.9,15.2,33.9,33.9  C390.7,52.7,375.5,67.8,356.8,67.9z M356.8,12.3c-11.7,0-21.2,9.5-21.2,21.2s9.5,21.2,21.2,21.2c11.7,0,21.2-9.5,21.2-21.2  S368.5,12.3,356.8,12.3z"
     style="fill:#2196f3;fill-opacity:1" /><path
     id="XMLID_28_"
     class="st1"
     d="M356.8,236.5c-18.7,0-33.9-15.2-33.9-33.9s15.2-33.9,33.9-33.9c18.7,0,33.9,15.2,33.9,33.9  C390.7,221.3,375.5,236.4,356.8,236.5z M356.8,180.9c-11.7,0-21.2,9.5-21.2,21.2c0,11.7,9.5,21.2,21.2,21.2  c11.7,0,21.2-9.5,21.2-21.2C378,190.4,368.5,180.9,356.8,180.9z"
     style="fill:#2196f3;fill-opacity:1" /><path
     id="XMLID_25_"
     class="st1"
     d="M439.5,182.7c-18.7,0-33.9-15.2-33.9-33.9s15.2-33.9,33.9-33.9s33.9,15.2,33.9,33.9  C473.3,167.4,458.2,182.6,439.5,182.7z M439.5,127.1c-11.7,0-21.2,9.5-21.2,21.2s9.5,21.2,21.2,21.2s21.2-9.5,21.2-21.2  C460.7,136.7,451.2,127.2,439.5,127.1L439.5,127.1z"
     style="fill:#2196f3;fill-opacity:1" /><path
     id="XMLID_22_"
     class="st1"
     d="M274.4,182.7c-18.7,0-33.9-15.2-33.9-33.9s15.2-33.9,33.9-33.9c18.7,0,33.9,15.2,33.9,33.9  C308.2,167.4,293.1,182.6,274.4,182.7z M274.4,127.1c-11.7,0-21.2,9.5-21.2,21.2s9.5,21.2,21.2,21.2c11.7,0,21.2-9.5,21.2-21.2  C295.6,136.7,286.1,127.2,274.4,127.1L274.4,127.1z"
     style="fill:#2196f3;fill-opacity:1" /><path
     id="XMLID_21_"
     class="st1"
     d="M357,368.7c-99,0-176.5-29.7-176.5-67.9s77.5,0,176.5,0s176.5-38.2,176.5,0S456,368.7,357,368.7  z M357,300.8c-96.5,0-163.7-26.1-163.7,0c0,3.3,1.1,6.6,3.1,9.9c14.2,23,76.2,45.3,160.7,45.3c78.9,0,138.3-19.5,157.3-40.8  c4.2-4.8,6.5-9.6,6.5-14.3C520.8,274.7,453.5,300.8,357,300.8z"
     style="fill:#2196f3;fill-opacity:1" /><path
     id="XMLID_16_"
     class="st1"
     d="M356.9,509c-99,0-176.5-29.7-176.5-67.9s77.5,0,176.5,0s176.5-38.2,176.5,0S455.9,509,356.9,509  z M356.9,441.1c-96.5,0-163.7-26.1-163.7,0c0,3.3,1.1,6.6,3.1,9.9c14.2,23,76.2,45.3,160.7,45.3c78.9,0,138.3-19.5,157.3-40.8  c4.2-4.8,6.5-9.6,6.5-14.3C520.7,415,453.4,441.1,356.9,441.1z"
     style="fill:#2196f3;fill-opacity:1" /><path
     id="XMLID_19_"
     class="st1"
     d="M356.9,255.6c-99,0-176.5-29.7-176.5-67.9s77.5,0,176.5,0s176.5-38.2,176.5,0  S455.9,255.6,356.9,255.6z M356.9,187.7c-96.5,0-163.7-26.1-163.7,0c0,3.3,1.1,6.6,3.1,9.9c14.2,23,76.2,45.3,160.7,45.3  c78.9,0,138.3-19.5,157.3-40.8c4.2-4.8,6.5-9.6,6.5-14.3C520.7,161.7,453.4,187.7,356.9,187.7z"
     style="fill:#2196f3;fill-opacity:1" /></svg>