<?xml version="1.0" encoding="UTF-8" standalone="no"?>
<!-- Generator: Adobe Illustrator 19.0.0, SVG Export Plug-In . SVG Version: 6.00 Build 0)  -->

<svg
   xmlns:dc="http://purl.org/dc/elements/1.1/"
   xmlns:cc="http://creativecommons.org/ns#"
   xmlns:rdf="http://www.w3.org/1999/02/22-rdf-syntax-ns#"
   xmlns:svg="http://www.w3.org/2000/svg"
   xmlns="http://www.w3.org/2000/svg"
   xmlns:sodipodi="http://sodipodi.sourceforge.net/DTD/sodipodi-0.dtd"
   xmlns:inkscape="http://www.inkscape.org/namespaces/inkscape"
   version="1.1"
   id="Layer_1"
   x="0px"
   y="0px"
   viewBox="0 0 641.9 470"
   style="enable-background:new 0 0 641.9 470;"
   xml:space="preserve"
   inkscape:version="0.91 r13725"
   sodipodi:docname="asset-issuance-items.svg"><metadata
     id="metadata17"><rdf:RDF><cc:Work
         rdf:about=""><dc:format>image/svg+xml</dc:format><dc:type
           rdf:resource="http://purl.org/dc/dcmitype/StillImage" /><dc:title></dc:title></cc:Work></rdf:RDF></metadata><defs
     id="defs15" /><sodipodi:namedview
     pagecolor="#ffffff"
     bordercolor="#666666"
     borderopacity="1"
     objecttolerance="10"
     gridtolerance="10"
     guidetolerance="10"
     inkscape:pageopacity="0"
     inkscape:pageshadow="2"
     inkscape:window-width="1920"
     inkscape:window-height="1017"
     id="namedview13"
     showgrid="false"
     inkscape:zoom="0.50212766"
     inkscape:cx="320.95001"
     inkscape:cy="235"
     inkscape:window-x="-8"
     inkscape:window-y="-8"
     inkscape:window-maximized="1"
     inkscape:current-layer="Layer_1" /><style
     type="text/css"
     id="style3">
	.st0{fill:#F2F2F2;}
	.st1{fill:#4F6BD5;}
</style><path
     id="XMLID_27_"
     class="st0"
     d="M563.4,346.3C456.6,466.1,88.1,538.4,38,374.6C-6.4,229.6,75.7,253.9,13.4,170.3  C-79.2,46.2,333.2,0,504.4,0S677,218.6,563.4,346.3z" /><g
     id="XMLID_9_"
     style="fill:#2196f3;fill-opacity:1"><path
       id="XMLID_31_"
       class="st1"
       d="M189.9,269c-18.7,0-33.9-15.2-33.9-33.9s15.2-33.9,33.9-33.9s33.9,15.2,33.9,33.9   C223.7,253.7,208.6,268.8,189.9,269z M189.9,213.4c-11.7,0-21.2,9.5-21.2,21.2c0,11.7,9.5,21.2,21.2,21.2s21.2-9.5,21.2-21.2   C211.1,222.9,201.6,213.4,189.9,213.4z"
       style="fill:#2196f3;fill-opacity:1" /><path
       id="XMLID_28_"
       class="st1"
       d="M189.9,381.3c-18.7,0-33.9-15.2-33.9-33.9s15.2-33.9,33.9-33.9s33.9,15.2,33.9,33.9   C223.7,366.1,208.6,381.2,189.9,381.3z M189.9,325.8c-11.7,0-21.2,9.5-21.2,21.2s9.5,21.2,21.2,21.2s21.2-9.5,21.2-21.2   S201.6,325.8,189.9,325.8z"
       style="fill:#2196f3;fill-opacity:1" /><path
       id="XMLID_22_"
       class="st1"
       d="M189.9,156.6c-18.7,0-33.9-15.2-33.9-33.9s15.2-33.9,33.9-33.9s33.9,15.2,33.9,33.9   C223.7,141.4,208.6,156.5,189.9,156.6z M189.9,101.1c-11.7,0-21.2,9.5-21.2,21.2s9.5,21.2,21.2,21.2s21.2-9.5,21.2-21.2   C211.1,110.6,201.6,101.1,189.9,101.1L189.9,101.1z"
       style="fill:#2196f3;fill-opacity:1" /><rect
       id="XMLID_1_"
       x="262.9"
       y="110.1"
       class="st1"
       width="223.1"
       height="22.4"
       style="fill:#2196f3;fill-opacity:1" /><rect
       id="XMLID_3_"
       x="262.9"
       y="222.4"
       class="st1"
       width="223.1"
       height="22.4"
       style="fill:#2196f3;fill-opacity:1" /><rect
       id="XMLID_4_"
       x="262.9"
       y="334.8"
       class="st1"
       width="223.1"
       height="22.4"
       style="fill:#2196f3;fill-opacity:1" /></g></svg>