<?xml version="1.0" encoding="utf-8"?>
<!-- Generator: Adobe Illustrator 19.0.0, SVG Export Plug-In . SVG Version: 6.00 Build 0)  -->
<svg version="1.1" id="Layer_1" xmlns="http://www.w3.org/2000/svg" xmlns:xlink="http://www.w3.org/1999/xlink" x="0px" y="0px"
	 viewBox="0 0 714.8 501.1" style="enable-background:new 0 0 714.8 501.1;" xml:space="preserve">
<style type="text/css">
	.st0{fill:#F2F2F2;}
	.st1{fill:#4F6BD5;}
	.st2{fill:none;stroke:#4F6BD5;stroke-width:17;stroke-miterlimit:10;}
	.st3{fill:none;stroke:#4F6BD5;stroke-width:5;stroke-miterlimit:10;}
</style>
<g id="XMLID_2_">
	<path id="XMLID_17_" class="st0" d="M382.8,2.6c-27.1-8.8-63.3,5.6-84.4,24.9c-21.1,19.4-32.7,46.6-46.6,71.6s-33,49.9-60.5,57.7
		c-29,8.3-59.6-4.3-89.8-3.9c-49.9,0.8-95.7,42.8-100.9,92.4c-4.7,44.9,21.3,89,57.8,115.6s81.8,38.1,126.5,43.7
		c44.8,5.6,90.1,5.8,134.7,12.8c61.6,9.6,120.7,31.8,182.3,41s129.8,3.4,177.7-36.4c22.2-18.4,39.4-46.6,34.4-74.9
		c-4.3-24.4-23.7-43.1-43.4-58c-32.7-24.7-84.2-30.6-103-66.9c-87.7-169.3-54.3-50.2-69.9-55.4c-34-11.2-51.5-53.7-55.1-89.3
		c-0.9-9-0.4-18.3-3.2-27C431.9,27.9,405.7,9.2,382.8,2.6"/>
</g>
<g id="XMLID_5_">
	<polygon id="XMLID_6_" class="st1" points="57.3,316.3 21.1,338.8 36.8,373.1 78.9,359.9 	"/>
	<polygon id="XMLID_7_" class="st1" points="527.7,219.5 590.8,199.8 493,46.1 453.8,70.4 	"/>
	<polygon id="XMLID_8_" class="st1" points="101.8,352.8 504.8,226.7 433.6,83 77.5,303.8 	"/>
</g>
<line id="XMLID_1_" class="st2" x1="275.4" y1="320.3" x2="206.6" y2="496.5"/>
<line id="XMLID_3_" class="st2" x1="278.3" y1="332.2" x2="285.3" y2="500.8"/>
<line id="XMLID_4_" class="st2" x1="277.3" y1="329.8" x2="425.9" y2="473.8"/>
<circle id="XMLID_9_" class="st3" cx="262.5" cy="76.4" r="4.5"/>
<circle id="XMLID_10_" class="st3" cx="225.5" cy="162.4" r="4.5"/>
<circle id="XMLID_11_" class="st3" cx="165.5" cy="142.4" r="4.5"/>
</svg>
