<?xml version="1.0" encoding="utf-8"?>
<!-- Generator: Adobe Illustrator 19.0.0, SVG Export Plug-In . SVG Version: 6.00 Build 0)  -->
<svg version="1.1" id="Layer_1" xmlns="http://www.w3.org/2000/svg" xmlns:xlink="http://www.w3.org/1999/xlink" x="0px" y="0px"
	 viewBox="0 0 777.1 172.5" style="enable-background:new 0 0 777.1 172.5;" xml:space="preserve">
<style type="text/css">
	.st0{fill:#141414;}
	.st1{fill:#FFFFFF;stroke:#FFE589;stroke-miterlimit:10;}
	.st2{fill:#2C63FF;}
</style>
<path id="XMLID_29_" class="st0" d="M55,127.4c-8.5,1.8-16.1,2.8-22.9,2.8c-6.8,0-12.2-0.8-16.3-2.5c-4.1-1.7-7.3-4.4-9.6-8
	c-2.3-3.7-3.9-8-4.8-13C0.4,101.6,0,95.4,0,87.9c0-15.8,2.2-26.7,6.7-32.9c4.4-6.2,12.6-9.3,24.5-9.3c6.9,0,14.8,1.1,23.9,3.2
	l-0.5,13.2c-7.9-1.2-14.5-1.8-19.7-1.8c-5.2,0-9,0.7-11.2,2.1c-2.2,1.4-3.9,4.1-5,8C17.6,74.3,17,81,17,90.4c0,9.4,1.1,16,3.3,19.6
	c2.2,3.6,6.6,5.5,13.2,5.5c6.6,0,13.6-0.6,21.1-1.7L55,127.4z"/>
<path id="XMLID_18_" class="st0" d="M123.2,128.7H76.8V47.1h16.6v67h29.9V128.7z"/>
<path id="XMLID_8_" class="st0" d="M135,128.7l18.4-81.6h31.4l18.4,81.6h-16.6l-3.2-14.8h-28.6l-3.2,14.8H135z M166.2,60.8
	l-8.3,38.8h22.3L172,60.8H166.2z"/>
<path id="XMLID_19_" class="st0" d="M239,101.3v27.4h-16.6V47.1h31.7c19.2,0,28.8,9,28.8,26.9c0,10.6-4,18.5-12,23.5l11.6,31.2
	h-18.1l-9.5-27.4H239z M263.2,83.6c1.9-2.4,2.9-5.6,2.9-9.5c0-3.9-1-7-3.1-9.4c-2-2.3-5-3.5-8.8-3.5H239v25.9h15.4
	C258.3,87.2,261.2,86,263.2,83.6z"/>
<path id="XMLID_27_" class="st0" d="M305.3,128.7V47.1h16.6v81.6H305.3z"/>
<path id="XMLID_31_" class="st0" d="M515.8,120c-5.1,6.8-13.8,10.1-26.2,10.1c-12.4,0-21.1-3.4-26.2-10.1
	c-5.1-6.8-7.6-17.3-7.6-31.7s2.5-25.1,7.6-32.1c5.1-7,13.8-10.5,26.2-10.5c12.4,0,21.1,3.5,26.2,10.5c5.1,7,7.6,17.7,7.6,32.1
	S520.9,113.2,515.8,120z M476.3,109.4c2.4,4.2,6.8,6.3,13.3,6.3c6.5,0,10.9-2.1,13.3-6.3c2.4-4.2,3.5-11.2,3.5-21.1
	c0-9.9-1.2-17.1-3.6-21.5c-2.4-4.5-6.8-6.7-13.2-6.7c-6.4,0-10.8,2.2-13.2,6.7c-2.4,4.5-3.6,11.7-3.6,21.5
	C472.8,98.2,474,105.2,476.3,109.4z"/>
<path id="XMLID_34_" class="st0" d="M561.8,101.4c0,9.5,4.8,14.3,14.5,14.3s14.5-4.8,14.5-14.3V47.1h16.6v54c0,10-2.6,17.3-7.7,22
	s-12.9,7-23.3,7c-10.4,0-18.2-2.3-23.3-7s-7.7-12-7.7-22v-54h16.6V101.4z"/>
<path id="XMLID_36_" class="st0" d="M632.9,128.7V47.1h28l19.7,67.2h1.2V47.1h16.6v81.6H671l-20.4-67.2h-1.2v67.2H632.9z"/>
<path id="XMLID_38_" class="st0" d="M717.1,61.7V47.1h60v14.6h-21.6v67H739v-67H717.1z"/>
<polygon id="XMLID_6_" class="st1" points="361.4,32.5 349.1,77.8 356.4,101.2 377.1,87.2 "/>
<polygon id="XMLID_5_" class="st1" points="400.6,45.6 428.9,70.7 413.9,6.3 "/>
<polygon id="XMLID_11_" class="st0" points="358,87.2 356.5,62.5 325.8,157.9 390.1,127.1 372.9,87.2 363.5,76.9 "/>
<path id="XMLID_4_" class="st0" d="M406.9,41.1l-26.7,60.5c-1.1,3.9,4.9,26.9,8.4,24.8l54.4-27.9l-25.1-48.8l-6.3,3"/>
<g id="XMLID_1_">
	<g id="XMLID_20_">
		<path id="XMLID_24_" class="st2" d="M321,170.4c13.1-22.4,20.5-48.4,27.5-73.2c7.3-25.9,13.6-52.2,18.1-78.8c-2.9,0-5.8,0-8.7,0
			c3,22.3,6.8,44.5,12.7,66.2c4.6,16.9,10.7,34.4,18.9,49.9c2.7,5.1,10.5,0.6,7.8-4.5c-8.1-15.2-14-32.6-18.4-49.2
			c-5.7-21.2-9.3-43-12.3-64.7c-0.6-4.4-8-4.2-8.7,0c-4.4,26.1-10.5,51.9-17.7,77.4c-6.9,24.5-14.1,50.3-27,72.5
			C310.3,170.8,318.1,175.4,321,170.4L321,170.4z"/>
	</g>
</g>
<g id="XMLID_3_">
	<g id="XMLID_14_">
		<path id="XMLID_2_" class="st2" d="M383.9,101.7c13.2-31.2,27.2-63,34.8-96.1c-2.9,0-5.8,0-8.7,0c5.3,18.4,9.1,37.2,14.1,55.7
			c4.9,18.3,11.8,35.9,20.9,52.5c2.8,5.1,10.6,0.5,7.8-4.5c-9-16.4-15.6-33.7-20.4-51.8c-4.8-18-8.5-36.3-13.7-54.3
			c-1.2-4.1-7.7-4.4-8.7,0c-7.4,32.3-21,63.5-33.9,94C373.9,102.5,381.6,107.1,383.9,101.7L383.9,101.7z"/>
	</g>
</g>
</svg>
