<?xml version="1.0" encoding="utf-8"?>
<!-- Generator: Adobe Illustrator 19.0.0, SVG Export Plug-In . SVG Version: 6.00 Build 0)  -->
<svg version="1.1" xmlns="http://www.w3.org/2000/svg" xmlns:xlink="http://www.w3.org/1999/xlink" x="0px" y="0px"
	 viewBox="0 0 721.3 377.3" style="enable-background:new 0 0 721.3 377.3;" xml:space="preserve">
<style type="text/css">
	.st0{fill:url(#XMLID_24_);}
	.st1{fill:#1390CE;}
	.st2{fill:#1191CE;}
	.st3{fill:#1091CE;}
	.st4{fill:#54A4D4;}
	.st5{fill:#DF434A;}
	.st6{fill:#9BBEDE;}
	.st7{fill:#FEFEFE;}
</style>
<g id="Layer_2">
	<linearGradient id="XMLID_24_" gradientUnits="userSpaceOnUse" x1="61.6823" y1="296.186" x2="304.8632" y2="92.133">
		<stop  offset="0" style="stop-color:#4FA3D4"/>
		<stop  offset="0.9667" style="stop-color:#FFFFFF;stop-opacity:0.6"/>
	</linearGradient>
	<circle id="XMLID_1_" class="st0" cx="183.3" cy="194.2" r="158.7"/>
</g>
<g id="Layer_1">
	<path id="XMLID_23_" class="st1" d="M61.1,295.5c-2.1-2.6-6.5-8.1-6.8-8.7c-0.8-1.2,1.3-5.5,1.8-6.8c1.4-3,2.6-6.1,3.9-9.2
		c1.8-3.9,3.6-7.7,5.4-11.6c1.9-3.9,3.9-7.7,5.7-11.6c0.7-1.5,1.1-3,1.7-4.6c2.4-4.7,4.8-9.4,7-14.1c1.1-2.3,2-4.6,3-7
		c3-6.1,6-12.1,8.9-18.2c1.2-2.5,2.2-5,3.3-7.5c1.8-3.7,3.7-7.5,5.4-11.2c2.3-4.9,4.6-9.9,6.9-14.8c0.3-0.6,0.6-1.2,0.9-1.8
		c4-8.2,8-16.4,12-24.6c0.5-0.9,0.9-1.8,1.4-2.7c2.9-6,5.8-11.9,8.7-17.9c3.8-7.6,7.6-15.2,11.5-22.8c0.8-1.6,1.7-3.1,2.5-4.7
		c2.9-5.7,5.9-11.5,8.8-17.2c3.4-6,6.7-12.2,10.2-18.1c1.1-1.8,1.7-4.4,4.6-4.4c12.6,0,25.2,0,37.7,0c1.6,3.6,3.3,7.2,4.9,10.8
		c7.1,15.2,14.1,30.5,21.2,45.7c4.6,9.9,9.1,19.7,13.7,29.6c3.1,6.8,6.3,13.5,9.4,20.3c0.2,0.6,0.3,1.1,0.5,1.7
		c-2.2,0.1-4.4,0.3-6.6,0.5c-7.6,0.7-15.2,1.3-22.8,2c-4.8,0.5-9.5,1-14.2,1.7c-6.8,1.1-13.6,2.3-20.4,3.5c-1.5-3.1-2.9-6.3-4.4-9.4
		c-0.9-1.8-1.9-3.6-2.7-5.5c-2-4.3-3.8-8.7-5.8-13c-5.5-11.9-11.1-23.8-16.6-35.8c-0.5-1.2-1.1-2.3-1.6-3.5c-2.6,0.5-5,0.9-7.5,1.4
		c-0.6,0.1-1.5,0.6-1.7,1.2c-1.6,3.5-3.1,7-4.7,10.6c-3.5,7.7-6.9,15.4-10.4,23.1c-3,6.8-6.1,13.5-9.1,20.3
		c-2.2,4.8-4.4,9.7-6.5,14.5c-1.8,4.1-3.6,8.2-5.5,12.3c-1.4,3.2-2.7,6.4-4.1,9.6l0,0c-0.3,0.1-0.5,0.3-0.8,0.4
		c-0.6,1.3-1.4,2.5-1.9,3.8c-3.2,7.1-6.2,14.3-9.4,21.4c-2.7,6.1-5.5,12.1-8.2,18.2c-0.7,1.5-1.1,3.1-1.6,4.7
		c-1,2.1-1.9,4.1-2.9,6.2c-1.5,3.4-3.1,6.9-4.6,10.3c-1.6,3.6-3.3,7.2-4.9,10.8c-2.1,4.7-4.2,9.4-6.2,14.1c-1,2.1-1.9,4.2-3,6.2
		c-0.5,1-2.8,4.3-3.5,5.2"/>
	<path id="XMLID_22_" class="st1" d="M63.7,294.3"/>
	<path id="XMLID_21_" class="st1" d="M312.6,286.9c-2.5,3.6-4.8,7.4-7.7,10.7c-11.2,12.8-24.4,23.1-38.8,32.1
		c-0.3,0.2-0.6,0.2-1,0.3c-0.8-1.5-1.7-3.1-2.5-4.6c-1.7-3.6-3.3-7.2-5-10.8c-0.8-1.8-1.7-3.6-2.5-5.4c-2-4.4-4.1-8.8-6.1-13.2
		c-1.5-3.4-3-6.9-4.6-10.3c-2.1-4.6-4.3-9.1-6.5-13.7c-0.5-1.2-1.1-2.4-1.6-3.5c-2.6-5.6-5.2-11.2-7.8-16.8
		c-2.8-5.9-5.5-11.8-8.3-17.8c-3.1-6.6-6.1-13.2-9.2-19.8c-3.6-7.9-7.2-15.9-10.9-23.8c-1.1-2.5-2.4-4.9-3.6-7.4
		c0.2-0.1,0.5-0.3,0.7-0.3c12-3.4,24-7.1,36.1-10.1c7.8-1.9,15.7-2.9,23.6-4.4c0.4,0.6,0.9,1.1,1.3,1.8c1.8,3.8,3.6,7.7,5.4,11.5
		c1.2,2.8,2.4,5.5,3.7,8.3c2.2,4.8,4.5,9.6,6.8,14.4c3.1,6.7,6.1,13.3,9.2,20c2.9,6.3,5.8,12.7,8.8,19c2.9,6.3,5.8,12.7,8.7,19
		c3.7,8.1,7.4,16.3,11.2,24.4C312,286.6,312.4,286.7,312.6,286.9z"/>
	<path id="XMLID_20_" class="st2" d="M664.7,81.4c0.3,1.4,0.7,2.5,0.7,3.6c0,27,0,54,0,81c0,0.8,0,1.5,0,2.6c-0.9,0-1.7,0-2.5,0
		c-37.2,0.1-74.4,0.1-111.6,0.2c-1.7,0-2.2,0.5-2.7,2.2c-4,13.6-13.3,21.8-26.6,25.6c-4.8,1.4-9.8,1.8-14.8,2.6
		c-2,0.3-3.5-0.2-4.2-2.3c4.1-1.9,8.3-3.8,12.4-5.9c6.2-3.3,11.9-7.4,14.9-14c4.5-9.8,3.8-19.4-1.7-28.5c-1.4-2.3-4-3.9-6.1-5.8
		c-1-0.9-2.2-1.6-3.5-2.4c5.2-6.4,10.2-12.6,15.4-19c5.4,7.9,9.9,16.1,13,24.9c0.6,1.7,1.3,2.2,3.2,2.2c8.1-0.1,16.2-0.1,24.1-0.1
		c-1.4-3.4-3.1-6.7-4.1-10.3c-3.6-13.3,6.6-27.8,20.4-29.1c10.9-1,20.6,3.9,25,12.8c0.2,0.3,0.3,0.6,0.4,0.9
		c1.9,4.4,1.7,4.9-2.7,6.7c-3.7,1.6-7.3,3.1-11,4.5c-1.8,0.7-2.5-0.1-2.5-2.1c0.2-5-1.8-7.6-7.3-6.4c-5.7,1.2-8.5,6.4-6.8,12.2
		c1.3,4.3,4.2,7.5,7.5,10.3c0.4,0.3,1,0.5,1.5,0.5c15.8,0,31.7,0,47.8,0c0-1,0-1.7,0-2.4c0-17.6,0-35.1,0-52.7
		c0-1.4,0.4-2.2,1.7-2.7C651.2,87.7,657.6,84.7,664.7,81.4z"/>
	<path id="XMLID_17_" class="st2" d="M601.4,213.2c7.6,0,15.1,0,22.6,0c1.6,0,2,1.4,2,2.8c0,7.3,0,14.6,0,21.9c0,0.7,0,1.5,0,2.5
		c0.9,0,1.6,0,2.4,0c8.6,0,17.3-0.4,25.8,0.2c17.3,1.2,31.8,10.8,35.7,28.5c2.8,12.5,1.9,24.8-5.6,35.8c-5.8,8.5-14.3,13-24.3,14.5
		c-6.2,0.9-12.5,1.1-18.7,1.1c-12.5,0.1-25.1-0.1-37.6-0.1c-1.7,0-2.5-0.6-2.5-2.4c0-34.7,0-69.3,0-104
		C601.3,213.9,601.3,213.7,601.4,213.2z M626.2,309.8c7.6,0,15.1,0.1,22.5-0.1c1.2,0,2.6-0.5,3.5-1.2c4.5-3.3,7.8-7.6,10.1-12.6
		c4.5-10,4.1-20.3,1.6-30.5c-2.2-9-5.5-12.1-14.8-12.9c-6.4-0.6-12.8-0.3-19.2-0.4c-1.2,0-2.4,0-3.7,0
		C626.2,271.4,626.2,290.4,626.2,309.8z"/>
	<path id="XMLID_14_" class="st3" d="M468.2,266.5c0-3.4,0.1-6.6-0.1-9.7c-0.1-0.8-1.3-1.9-2.2-2.1c-1.5-0.3-3.1-0.1-4.7-0.1
		c-13.2,0.2-26.4,0.3-39.7,0.5c-0.9,0-1.8,0.1-2.7,0.2c-1.5,0.1-2.3-0.9-2.3-2.1c-0.1-4.5,0-9.1,0-13.7c0.7,0,1.3-0.1,1.9-0.1
		c17.4,0,34.9,0,52.3,0c4.6,0,9,1,13.1,3.2c6,3.3,9.3,8.2,9.3,15.1c0,20.3,0,40.5,0,60.8c0,0.7,0,1.4,0,2.3c-0.9,0-1.7,0-2.5,0
		c-18.5,0-37.1-0.2-55.6,0.1c-5.7,0.1-10-1.9-13.9-5.5c-8.4-7.5-11.2-17.1-10-28.1c0.6-5.2,2-10,5.5-14c3.7-4.3,8.1-7,14.1-6.9
		c11.7,0.2,23.4,0.1,35.1,0.1C466.4,266.5,467.1,266.5,468.2,266.5z M468.1,285.6c-0.8,0-1.5,0-2.1,0c-11,0-22-0.1-33,0
		c-9.9,0.2-12.3,5.5-11.8,13.1c0.5,6.8,6.1,11.6,12.7,11.4c10.7-0.3,21.3-0.1,32-0.1c0.7,0,1.5,0,2.3,0
		C468.1,301.9,468.1,293.9,468.1,285.6z"/>
	<path id="XMLID_13_" class="st3" d="M584.4,320.4c-7.8,0-15.4,0-22.9,0c-1.6,0-1.9-1.2-1.9-2.5c0-9.6,0-19.2,0-28.7
		c0-7.6,0.1-15.3-0.1-22.9c-0.1-2.6-0.5-5.3-1.4-7.9c-1.7-5.4-5.9-8.1-11.4-8.7c-6.7-0.8-12.9,0.3-18.2,4.6c-3.4,2.8-5.5,6.2-5.4,11
		c0.2,18,0.1,36,0.1,53.9c0,0.7,0,1.5,0,2.4c-4.3,0-8.4,0.1-12.5-0.1c-0.6,0-1.2-1.1-1.6-1.9c-0.2-0.4,0-1.1,0-1.6
		c0-17.4-0.1-34.9,0-52.3c0.1-11.1,5.5-19,15.3-24c8.8-4.5,18.3-4.3,27.8-3.5c7.5,0.7,14.6,2.7,20.5,7.6
		c7.3,6.1,11.5,13.8,11.6,23.4c0.2,16.2,0,32.4,0,48.6C584.4,318.6,584.4,319.4,584.4,320.4z"/>
	<path id="XMLID_12_" class="st2" d="M464.9,159.4c2.9,4.2,4.2,8.4,4.1,13.1c0,11.3-6.2,20.2-16.9,23.8c-9.8,3.2-19.7,3-29.2-1
		c-14.4-6-20.7-20.5-15.8-35.8c2.8-8.7,8-15.9,14.2-22.5c1.1-1.2,2.3-2.4,3.5-3.5c1.9-1.9,2.8-1.9,4.8-0.4
		c-2.4,4.9-4.9,9.7-7.1,14.6c-2,4.7-3.3,9.6-3.3,14.8c0.1,7.3,3,11.3,9.9,14.1c6.5,2.6,20.8,0.5,25.3-6.8c1.4-2.3,2.5-4.5,2.1-7.8
		c-3,0-6,0.1-9-0.1c-1.4-0.1-2.8-0.6-4-1.1c-0.3-0.1-0.5-1.2-0.3-1.6c1.7-3.9,3.6-7.7,5.3-11.6c0.6-1.3,1.5-1.2,2.5-1.2
		c14,0,28,0,42,0c2.9,0,3.3-0.2,2.5-3c-0.6-2.2-1.7-4.4-3.1-6.1c-1.6-1.9-3.8-3.1-5.7-4.7c-0.8-0.7-1.7-1.4-2.5-2
		c4.7-4.6,9.3-9.2,14-13.8c2.9,3.1,4.9,7.1,6.5,11.4c3,8.1,4.2,16.5,4.5,25c0.1,3.6,0,7.3,0,11c0,1.2-0.3,1.8-1.6,1.9
		c-9.8,0.5-19.5,1.6-29.3,0.5c-1-0.1-2.2-0.8-2.9-1.6C472.5,162.2,469.6,159.6,464.9,159.4z"/>
	<path id="XMLID_11_" class="st3" d="M691.5,81.5c0.3,1.1,0.9,2.1,0.9,3c0,27.4,0,54.8,0,82.2c0,0.5,0,1.1,0,1.7
		c-0.5,0.1-0.9,0.1-1.3,0.1c-6.1,0-12.1,0-18.2,0c-1.7,0-2.6-0.7-2.6-2.5c0-24.4,0-48.9,0.1-73.3c0-0.6,0.5-1.6,1-1.9
		C677.9,87.8,684.5,84.8,691.5,81.5z"/>
	<path id="XMLID_10_" class="st2" d="M457.9,212.4c-3.3,3.3-6.4,6.4-9,9c-3.5-3.3-7.2-6.6-10.6-9.8c3.2-3.2,6.3-6.3,9.2-9.2
		C450.8,205.7,454.3,209,457.9,212.4z"/>
	<path id="XMLID_9_" class="st2" d="M417.6,211.5c3.3-3.3,6.3-6.3,9-9c3.5,3.3,7.1,6.6,10.7,9.8c-3.3,3.3-6.4,6.4-9.1,9.1
		C424.7,218.2,421.2,214.8,417.6,211.5z"/>
	<path id="XMLID_8_" class="st2" d="M500.5,185.2c-3.2,3.2-6.3,6.3-9,9c-3.5-3.2-7-6.5-10.7-9.8c3.3-3.1,6.5-6.1,9.4-8.8
		C493.4,178.6,497,182,500.5,185.2z"/>
	<path id="XMLID_7_" class="st4" d="M63.7,294.3c0.3,0.4,0.6,0.8,0.9,1.1C64.3,295.1,64,294.7,63.7,294.3z"/>
	<path id="XMLID_6_" class="st5" d="M98.8,237.6c-2.8,2.3-5.6,4.7-8.4,7c-0.5,0.4-1,0.9-1.5,1.3c0.5-1.6,0.9-3.2,1.6-4.7
		c2.7-6.1,5.5-12.1,8.2-18.2c3.2-7.1,6.3-14.3,9.4-21.4c0.6-1.3,1.3-2.5,1.9-3.8c0.3-0.1,0.5-0.3,0.8-0.4l0,0
		c2.6-1.2,5.3-2.5,7.9-3.7c4.4-1.8,8.9-3.5,13.3-5.3c5.2-1.8,10.4-3.7,15.7-5.5c3.6-1.1,7.1-2.1,10.7-3.2c3.8-1.1,7.6-2.2,11.4-3.4
		c0.7-0.1,1.4-0.1,2-0.3c6.5-1.5,13.1-3,19.6-4.5c6.8-1.2,13.6-2.5,20.4-3.5c4.7-0.7,9.5-1.3,14.2-1.7c7.6-0.7,15.2-1.4,22.8-2
		c2.2-0.2,4.4-0.3,6.6-0.5c6.5,0,12.9-0.1,19.4-0.1c4.4,0,8.7,0,13.1,0c0,0.2,0,0.5,0,0.7c-1.6,0.2-3.2,0.4-4.8,0.6
		c-8.6,0.9-17.3,1.7-25.9,2.6c-0.1,0-0.2,0.2-0.3,0.3c-7.9,1.4-15.9,2.4-23.6,4.4c-12.1,3-24.1,6.7-36.1,10.1
		c-0.3,0.1-0.5,0.2-0.7,0.3c-3,1.1-6,2-8.9,3.2c-6.7,2.8-13.4,5.6-20,8.5c-5.9,2.9-11.8,5.8-17.8,8.7c-2.7,1.5-5.5,2.9-8.2,4.4
		c-2.6,1.5-5,3.1-7.6,4.7c-5.2,3.4-10.4,6.8-15.7,10.3c-2,1.4-4.1,2.7-6,4.2C107.7,230.4,103.3,234,98.8,237.6z"/>
	<path id="XMLID_5_" class="st6" d="M110.9,197.5c-0.3,0.1-0.5,0.3-0.8,0.4C110.3,197.8,110.6,197.7,110.9,197.5z"/>
	<path id="XMLID_4_" class="st7" d="M626.2,309.8c0-19.3,0-38.4,0-57.7c1.3,0,2.5,0,3.7,0c6.4,0.1,12.8-0.2,19.2,0.4
		c9.2,0.8,12.6,3.8,14.8,12.9c2.5,10.3,3,20.6-1.6,30.5c-2.3,5-5.6,9.3-10.1,12.6c-1,0.7-2.3,1.2-3.5,1.2
		C641.2,309.8,633.8,309.8,626.2,309.8z"/>
	<path id="XMLID_3_" class="st7" d="M468.1,285.6c0,8.3,0,16.3,0,24.5c-0.8,0-1.5,0-2.3,0c-10.7,0-21.3-0.2-32,0.1
		c-6.5,0.2-12.2-4.6-12.7-11.4c-0.5-7.6,1.8-12.9,11.8-13.1c11-0.2,22,0,33,0C466.6,285.6,467.3,285.6,468.1,285.6z"/>
</g>
</svg>
