<?xml version="1.0" encoding="utf-8"?>
<!-- Generator: Adobe Illustrator 19.0.0, SVG Export Plug-In . SVG Version: 6.00 Build 0)  -->
<svg version="1.1" id="Layer_1" xmlns="http://www.w3.org/2000/svg" xmlns:xlink="http://www.w3.org/1999/xlink" x="0px" y="0px"
	 viewBox="0 0 777.1 169.6" style="enable-background:new 0 0 777.1 169.6;" xml:space="preserve">
<style type="text/css">
	.st0{fill:#FFFFFF;}
	.st1{fill:#FFFFFF;stroke:#FFE589;stroke-miterlimit:10;}
	.st2{fill:#040000;}
	.st3{fill:#2C63FF;}
</style>
<path id="XMLID_29_" class="st0" d="M55,125.9c-8.5,1.8-16.1,2.8-22.9,2.8c-6.8,0-12.2-0.8-16.3-2.5s-7.3-4.4-9.6-8
	c-2.3-3.7-3.9-8-4.8-13C0.4,100.2,0,93.9,0,86.4c0-15.8,2.2-26.7,6.7-32.9c4.4-6.2,12.6-9.3,24.5-9.3c6.9,0,14.8,1.1,23.9,3.2
	l-0.5,13.2c-7.9-1.2-14.5-1.8-19.7-1.8c-5.2,0-9,0.7-11.2,2.1c-2.2,1.4-3.9,4.1-5,8c-1.1,3.9-1.6,10.6-1.6,20c0,9.4,1.1,16,3.3,19.6
	c2.2,3.6,6.6,5.5,13.2,5.5c6.6,0,13.6-0.6,21.1-1.7L55,125.9z"/>
<path id="XMLID_18_" class="st0" d="M123.2,127.2H76.8V45.6h16.6v67h29.9V127.2z"/>
<path id="XMLID_8_" class="st0" d="M135,127.2l18.4-81.6h31.4l18.4,81.6h-16.6l-3.2-14.8h-28.6l-3.2,14.8H135z M166.2,59.3L157.9,98
	h22.3L172,59.3H166.2z"/>
<path id="XMLID_19_" class="st0" d="M239,99.8v27.4h-16.6V45.6h31.7c19.2,0,28.8,9,28.8,26.9c0,10.6-4,18.5-12,23.5l11.6,31.2h-18.1
	L255,99.8H239z M263.2,82.1c1.9-2.4,2.9-5.6,2.9-9.5c0-3.9-1-7-3.1-9.4c-2-2.3-5-3.5-8.8-3.5H239v25.9h15.4
	C258.3,85.7,261.2,84.5,263.2,82.1z"/>
<path id="XMLID_27_" class="st0" d="M305.3,127.2V45.6h16.6v81.6H305.3z"/>
<path id="XMLID_31_" class="st0" d="M515.8,118.5c-5.1,6.8-13.8,10.1-26.2,10.1c-12.4,0-21.1-3.4-26.2-10.1
	c-5.1-6.8-7.6-17.3-7.6-31.7s2.5-25.1,7.6-32.1c5.1-7,13.8-10.5,26.2-10.5c12.4,0,21.1,3.5,26.2,10.5c5.1,7,7.6,17.7,7.6,32.1
	S520.9,111.7,515.8,118.5z M476.3,107.9c2.4,4.2,6.8,6.3,13.3,6.3c6.5,0,10.9-2.1,13.3-6.3c2.4-4.2,3.5-11.2,3.5-21.1
	c0-9.9-1.2-17.1-3.6-21.5c-2.4-4.5-6.8-6.7-13.2-6.7c-6.4,0-10.8,2.2-13.2,6.7c-2.4,4.5-3.6,11.7-3.6,21.5
	C472.8,96.7,474,103.7,476.3,107.9z"/>
<path id="XMLID_34_" class="st0" d="M561.8,100c0,9.5,4.8,14.3,14.5,14.3s14.5-4.8,14.5-14.3V45.6h16.6v54c0,10-2.6,17.3-7.7,22
	s-12.9,7-23.3,7c-10.4,0-18.2-2.3-23.3-7s-7.7-12-7.7-22v-54h16.6V100z"/>
<path id="XMLID_36_" class="st0" d="M632.9,127.2V45.6h28l19.7,67.2h1.2V45.6h16.6v81.6H671L650.6,60h-1.2v67.2H632.9z"/>
<path id="XMLID_38_" class="st0" d="M717.1,60.2V45.6h60v14.6h-21.6v67H739v-67H717.1z"/>
<polygon id="XMLID_6_" class="st1" points="361.4,31 349.1,76.4 356.4,99.8 377.1,85.7 "/>
<polygon id="XMLID_5_" class="st1" points="400.6,44.2 428.9,69.3 413.9,4.8 "/>
<polygon id="XMLID_11_" class="st2" points="358,85.7 359.5,61 325.8,156.4 390.1,125.7 372.9,85.7 363.5,75.4 "/>
<path id="XMLID_4_" class="st2" d="M406.9,39.6l-26.7,60.5c-1.1,3.9,4.9,26.9,8.4,24.8L442.9,97l-25.1-48.8l-6.3,3"/>
<g id="XMLID_1_">
	<g id="XMLID_20_">
		<path id="XMLID_24_" class="st3" d="M319.7,168.1c13-22.3,20.4-48.2,27.4-72.8c7.3-25.9,13.6-52.2,18.1-78.8c-1.9,0-3.9,0-5.8,0
			c3,22.3,6.8,44.5,12.7,66.2c4.6,16.8,10.6,34.2,18.8,49.5c1.8,3.4,7,0.4,5.2-3c-8.2-15.3-14.1-32.8-18.6-49.6
			c-5.7-21.2-9.3-43-12.3-64.7c-0.4-2.9-5.3-2.8-5.8,0C355,41,348.8,66.9,341.7,92.3c-6.9,24.6-14.2,50.6-27.2,72.8
			C312.6,168.5,317.7,171.5,319.7,168.1L319.7,168.1z"/>
	</g>
</g>
<g id="XMLID_3_">
	<g id="XMLID_14_">
		<path id="XMLID_2_" class="st3" d="M382.6,99.5c13.2-31,27.1-62.8,34.7-95.8c-1.9,0-3.9,0-5.8,0c5.3,18.4,9.1,37.2,14.1,55.7
			c4.9,18.2,11.7,35.6,20.7,52.2c1.9,3.4,7,0.4,5.2-3c-9.1-16.5-15.7-33.9-20.5-52.2c-4.8-18-8.5-36.3-13.7-54.3
			c-0.8-2.7-5.1-3-5.8,0c-7.5,32.5-21.1,63.8-34,94.3C375.9,100,381.1,103.1,382.6,99.5L382.6,99.5z"/>
	</g>
</g>
</svg>
